<?xml version="1.0" encoding="utf-8"?>
<!-- Generator: Adobe Illustrator 24.2.1, SVG Export Plug-In . SVG Version: 6.00 Build 0)  -->
<svg version="1.1" xmlns="http://www.w3.org/2000/svg" xmlns:xlink="http://www.w3.org/1999/xlink" x="0px" y="0px"
	 viewBox="0 0 500 500" style="enable-background:new 0 0 500 500;" xml:space="preserve">
<style type="text/css">
	.st0{fill:#FFFFFF;}
</style>
<g id="Layer_4">
	<g>
		<g>
			<path class="st0" d="M332,263.3c3.1,0,6,0.3,9.5,1l0.1,0l0.1,0c6.2,1.2,11.9,4.4,16.2,9c3.7,4.3,6,9.7,6.8,15.5l0,0.2l0,0.2
				c0.9,6.3,0.7,12.6-0.7,18.9l-0.1,0.3l-0.1,0.3c-1.7,8.6-5.4,17-10.8,24.1l-0.2,0.3l-0.2,0.3c-3.9,5.6-9.4,9.6-16,11.8
				c-1.7,0.5-3.4,0.8-5.2,0.8c-2.8,0-5.5-0.6-8-1.8c-7.2-3.6-13.1-9.3-17-16.4l-0.2-0.3l-0.2-0.3c-4.8-8.2-7.6-17.4-8.1-26.8l0-0.4
				l0-0.4c-0.7-7.6,0.8-15.2,4.3-22c3.2-5.7,8.5-9.8,14.7-11.7l0.1,0l0.1,0c3.2-1,6.6-1.7,10.2-2.1h0.7l0.7,0
				C330,263.3,331,263.3,332,263.3 M332,239.3c-1.5,0-3,0-4.5,0.1h-1.1c-5.5,0.5-11,1.6-16.3,3.3c-12.2,3.7-22.5,12-28.7,23.2
				c-5.8,10.9-8.3,23.3-7.2,35.6c0.7,13.3,4.6,26.1,11.3,37.6c6.2,11.4,15.8,20.7,27.4,26.5c5.8,2.9,12.2,4.3,18.6,4.3
				c4.2,0,8.3-0.6,12.3-1.8c11.5-3.7,21.5-11,28.5-20.8c7.5-10,12.7-21.6,15.2-33.9c2-9.1,2.4-18.5,1-27.7
				c-1.4-10.4-5.7-20.3-12.6-28.3c-7.8-8.5-18.1-14.3-29.5-16.6C341.3,239.8,336.8,239.3,332,239.3L332,239.3z"/>
		</g>
	</g>
	<g>
		<g>
			<path class="st0" d="M371.8,408.6c5.9,0.1,11.7,0.9,17.2,2.6l0,0l0,0c16.7,4.9,28,12.9,35.6,25l0.3,0.4l0.3,0.4
				c3.6,5.3,4.7,12.5,5,20.9H231.7c0.2-2.1,0.6-4.6,1.3-7.4c2.5-10.3,7.4-18.5,11.1-22l0.3-0.3l0.3-0.3c6.3-6.4,14.2-11.5,22.8-14.7
				l0.2-0.1l0.2-0.1c4.7-1.8,9.6-3.1,14.7-3.6c1.9-0.1,2.7-0.2,3.8-0.4c0.4,0,0.8-0.1,1.7-0.2l2.2-0.2l1.1-0.1l0.4,0
				c1,0.5,2.5,1.4,3.7,2.1c0.6,0.4,1.2,0.7,1.8,1.1l0.8,0.5l0.8,0.4c10,4.8,21.2,7.3,32.3,7.3c4.3,0,8.6-0.4,12.9-1.1
				C353.9,417.4,363.4,413.9,371.8,408.6 M292.6,384.5c-0.9,0-1.9,0.1-2.9,0.2l-1.5,0.1l-2.6,0.3c-3,0.3-2.2,0.3-5.2,0.5
				c-7.3,0.8-14.5,2.5-21.3,5.2c-11.9,4.4-22.7,11.4-31.5,20.4c-16.7,15.9-26.8,53.7-14.9,70.9h237.9c3,0,3.5-0.5,3.5-3.5
				c0-18.7,2.1-38.7-9.1-54.9c-11.6-18.4-28.7-29.2-49.1-35.3c-8.1-2.4-16.4-3.6-24.9-3.6c-1.4,0-2.8,0-4.1,0.1
				c-2,0.2-3.9,0.8-5.5,2c-6.3,4.5-13.6,7.4-21.2,8.4c-3,0.5-6,0.8-9.1,0.8c-7.5,0-15-1.7-21.9-5
				C303.9,387.9,298.8,384.5,292.6,384.5L292.6,384.5z"/>
		</g>
	</g>
	<g>
		<g>
			<path class="st0" d="M198.8,226.5c3.1,0,6,0.3,9.5,1l0.1,0l0.1,0c6.2,1.2,11.9,4.4,16.2,9c3.7,4.3,6,9.7,6.8,15.5l0,0.2l0,0.2
				c0.9,6.3,0.7,12.6-0.7,18.9l-0.1,0.3l-0.1,0.3c-1.7,8.6-5.4,17-10.8,24.1l-0.2,0.3l-0.2,0.3c-3.9,5.6-9.4,9.6-16,11.8
				c-1.7,0.5-3.4,0.8-5.2,0.8c-2.8,0-5.5-0.6-8-1.8c-7.2-3.6-13.1-9.3-17-16.4l-0.2-0.3l-0.2-0.3c-4.8-8.2-7.6-17.4-8.1-26.8l0-0.4
				l0-0.4c-0.7-7.6,0.8-15.2,4.3-22c3.2-5.7,8.5-9.8,14.7-11.7l0.1,0l0.1,0c3.2-1,6.6-1.7,10.2-2.1h0.7l0.7,0
				C196.8,226.5,197.8,226.5,198.8,226.5 M198.8,202.5c-1.5,0-3,0-4.5,0.1h-1.1c-5.5,0.5-11,1.6-16.3,3.3
				c-12.2,3.7-22.5,12-28.7,23.2c-5.8,10.9-8.3,23.3-7.2,35.6c0.7,13.3,4.6,26.1,11.3,37.6c6.2,11.4,15.8,20.7,27.4,26.5
				c5.8,2.9,12.2,4.3,18.6,4.3c4.2,0,8.3-0.6,12.3-1.8c11.5-3.7,21.5-11,28.5-20.8c7.5-10,12.7-21.6,15.2-33.9
				c2-9.1,2.4-18.5,1-27.7c-1.4-10.4-5.7-20.3-12.6-28.3c-7.8-8.5-18.1-14.3-29.5-16.6C208.2,203,203.6,202.5,198.8,202.5
				L198.8,202.5z"/>
		</g>
	</g>
	<g>
		<g>
			<path class="st0" d="M238.7,371.8c5.9,0.1,11.7,0.9,17.2,2.6l0,0l0,0c5.4,1.6,12,5,18.8,10.4c-5.3,0.8-10.1,2-14.4,3.6
				c-6.9,2.6-30.5,12.5-42.9,31.8c-0.2,0.3-0.4,0.6-0.6,0.9H98.6c0.2-2.1,0.6-4.6,1.3-7.4c2.5-10.3,7.4-18.5,11.1-22l0.3-0.3
				l0.3-0.3c6.3-6.4,14.2-11.5,22.8-14.7l0.2-0.1l0.2-0.1c4.7-1.8,9.6-3.1,14.7-3.6c1.9-0.1,2.7-0.2,3.8-0.4c0.4,0,0.8-0.1,1.7-0.2
				l2.2-0.2l1.1-0.1l0.4,0c1,0.5,2.5,1.4,3.7,2.1c0.6,0.4,1.2,0.7,1.8,1.1l0.8,0.5l0.8,0.4c10,4.8,21.2,7.3,32.3,7.3
				c4.3,0,8.6-0.4,12.9-1.1C220.7,380.6,230.2,377.1,238.7,371.8 M159.4,347.7c-0.9,0-1.9,0.1-2.9,0.2L155,348l-2.6,0.3
				c-3,0.3-2.2,0.3-5.2,0.5c-7.3,0.8-14.5,2.5-21.3,5.2c-11.9,4.4-22.7,11.4-31.5,20.4c-16.7,15.9-26.8,53.7-14.9,70.9h153.8
				c1.1,0,0.4-5.8,4.4-12c8.9-13.9,29.2-21.6,31-22.2c7-2.6,16.2-3.5,24.6-3.5c5.4,0,10.4,0.4,14.2,0.8c8.4,1.1,13.3,2.1,15.5,2.1
				c2.9,0,1.2-1.9-3-8c-15-26.6-36.9-45-57.3-51.1c-8.1-2.4-16.4-3.6-24.9-3.6c-1.4,0-2.8,0-4.1,0.1c-2,0.2-3.9,0.8-5.5,2
				c-6.3,4.5-13.6,7.4-21.2,8.4c-3,0.5-6,0.8-9.1,0.8c-7.5,0-15-1.7-21.9-5C170.8,351.1,165.6,347.7,159.4,347.7L159.4,347.7z"/>
		</g>
	</g>
</g>
<g id="Layer_5">
	<g>
		<g>
			<path class="st0" d="M206.1,32.5l0.2,90.8h-21v24v10.9l-66.9-32.5l-5-2.4h-5.5H51.6V32.5H206.1 M253.2,8.5h-209
				C35,8.5,27.6,16,27.6,25.2v105.3c0,9.2,7.5,16.7,16.7,16.7h63.7l101.4,49.3v-49.3h14.9c4.4,0,6,1,6.5,1c0.5,0-0.3-1.2-0.3-6
				l-0.3-115.9l39.9-1.2C270,16,262.5,8.5,253.2,8.5L253.2,8.5z"/>
		</g>
	</g>
	<g>
		<g>
			<path class="st0" d="M458.9,40.5v106.2h-35.3h-7.1l-5.9,3.8l-26.6,17.1l-26.9,15.5v-12.5v-24h-24H229.6V40.5H458.9 M463.8,16.5
				H224.7c-10.6,0-19.1,8.3-19.1,18.6v117c0,10.3,8.6,18.6,19.1,18.6h108.4v54.1l63.4-36.6l27.1-17.5h40.2
				c10.5,0,19.1-8.3,19.1-18.6v-117C482.9,24.8,474.4,16.5,463.8,16.5L463.8,16.5z"/>
		</g>
	</g>
</g>
</svg>
