<?xml version="1.0" encoding="utf-8"?>
<!-- Generator: Adobe Illustrator 24.2.1, SVG Export Plug-In . SVG Version: 6.00 Build 0)  -->
<svg version="1.1" id="Layer_4" xmlns="http://www.w3.org/2000/svg" xmlns:xlink="http://www.w3.org/1999/xlink" x="0px" y="0px"
	 viewBox="0 0 500 500" style="enable-background:new 0 0 500 500;" xml:space="preserve">
<style type="text/css">
	.st0{fill:#FFFFFF;}
</style>
<g>
	<path class="st0" d="M182.5,80.2c60.7,0,110,49.3,110,110c0,17.9-4.2,35-12.4,50.7c-7.8,15.1-19.3,28.3-33.1,38.4
		c-18.8,13.7-41.1,20.9-64.6,20.9c-60.7,0-110-49.3-110-110S121.8,80.2,182.5,80.2 M182.5,56.2c-74,0-134,60-134,134s60,134,134,134
		c29.4,0,56.6-9.4,78.7-25.5c33.5-24.4,55.3-63.9,55.3-108.5C316.5,116.2,256.5,56.2,182.5,56.2L182.5,56.2z"/>
</g>
<g>
	<g>
		<path class="st0" d="M285.8,283.1l165.8,168.2l-10.9,11.1L274.8,294.1L285.8,283.1 M285.8,248.9l-44.6,45.3l199.5,202.3l44.6-45.3
			L285.8,248.9L285.8,248.9z"/>
	</g>
</g>
</svg>
