<?xml version="1.0" encoding="utf-8"?>
<!-- Generator: Adobe Illustrator 24.2.1, SVG Export Plug-In . SVG Version: 6.00 Build 0)  -->
<svg version="1.1" id="Layer_9" xmlns="http://www.w3.org/2000/svg" xmlns:xlink="http://www.w3.org/1999/xlink" x="0px" y="0px"
	 viewBox="0 0 500 500" style="enable-background:new 0 0 500 500;" xml:space="preserve">
<style type="text/css">
	.st0{fill:#FFFFFF;}
</style>
<g>
	<path class="st0" d="M301.2,43.6v42.3c0,25.1,20.4,45.6,45.6,45.6c7.9,0,15.8-2.1,22.7-6.1l38.1-22l24.3,41.8l24.8,42.9l-38.9,22.4
		c-14.2,8.2-22.8,23-22.8,39.4c0,16.5,8.5,31.2,22.8,39.4l38.8,22.4l-49.1,84.8l-38-22c-6.9-4-14.8-6.1-22.7-6.1
		c-25.1,0-45.6,20.4-45.6,45.6v42.3h-99.7v-42.3c0-25.1-20.4-45.6-45.6-45.6c-7.9,0-15.8,2.1-22.7,6.1l-38,22l-49.1-84.8L85,289.4
		c14.3-8.2,22.8-23,22.8-39.4c0-16.5-8.5-31.2-22.8-39.4l-38.8-22.4l49.1-84.8l38,22c6.9,4,14.8,6.1,22.7,6.1
		c25.1,0,45.6-20.4,45.6-45.6V43.6H301.2 M250.9,358.1c59.4,0,107.7-48.3,107.7-107.7s-48.3-107.7-107.7-107.7
		c-59.4,0-107.7,48.3-107.7,107.7S191.5,358.1,250.9,358.1 M303.7,19.6H199c-11.9,0-21.5,9.6-21.5,21.5v44.8
		c0,12.6-10.3,21.6-21.6,21.6c-3.6,0-7.3-0.9-10.7-2.9l-40.2-23.2c-3.4-2-7.1-2.9-10.7-2.9c-7.4,0-14.7,3.9-18.7,10.7l-51.5,89
		c-6,10.3-2.4,23.5,7.9,29.4l41,23.7c14.3,8.3,14.3,29,0,37.3l-41,23.7c-10.3,5.9-13.8,19.1-7.9,29.4l51.5,89
		c4,6.9,11.2,10.7,18.7,10.7c3.7,0,7.4-0.9,10.7-2.9l40.2-23.2c3.5-2,7.1-2.9,10.7-2.9c11.2,0,21.6,9,21.6,21.6v44.8
		c0,11.9,9.6,21.5,21.5,21.5h104.7c11.9,0,21.5-9.6,21.5-21.5v-44.8c0-12.6,10.3-21.6,21.6-21.6c3.6,0,7.3,0.9,10.7,2.9l40.2,23.2
		c3.4,2,7.1,2.9,10.7,2.9c7.4,0,14.7-3.9,18.7-10.8l51.5-89c6-10.3,2.4-23.5-7.9-29.4l-41-23.7c-14.3-8.3-14.4-29,0-37.3l41-23.7
		c10.3-5.9,13.8-19.1,7.9-29.4l-26-45.1l-25.5-44c-4-6.9-11.2-10.7-18.6-10.7c-3.7,0-7.4,0.9-10.7,2.9l-40.2,23.2
		c-3.5,2-7.1,2.9-10.7,2.9c-11.2,0-21.6-9-21.6-21.6V41.2C325.2,29.3,315.6,19.6,303.7,19.6L303.7,19.6z M250.9,334.1
		c-46.2,0-83.7-37.5-83.7-83.7s37.5-83.7,83.7-83.7c46.2,0,83.7,37.5,83.7,83.7S297.1,334.1,250.9,334.1L250.9,334.1z"/>
</g>
</svg>
