<?xml version="1.0" encoding="utf-8"?>
<!-- Generator: Adobe Illustrator 24.2.1, SVG Export Plug-In . SVG Version: 6.00 Build 0)  -->
<svg version="1.1" xmlns="http://www.w3.org/2000/svg" xmlns:xlink="http://www.w3.org/1999/xlink" x="0px" y="0px"
	 viewBox="0 0 500 500" style="enable-background:new 0 0 500 500;" xml:space="preserve">
<style type="text/css">
	.st0{fill:#D2EBF0;}
	.st1{display:none;}
	
		.st2{display:inline;fill:none;stroke:#C35A20;stroke-width:21.1288;stroke-linecap:round;stroke-linejoin:round;stroke-miterlimit:10;}
	.st3{display:inline;fill:none;stroke:#C35A20;stroke-width:24;stroke-linecap:round;stroke-linejoin:round;stroke-miterlimit:10;}
	.st4{fill:#C35A1F;}
</style>
<g id="Layer_3">
	<circle class="st0" cx="251.1" cy="250.9" r="244.1"/>
</g>
<g id="Layer_2" class="st1">
	<path class="st2" d="M308.3,425.6c0.1,19.9-23.7,36.1-53,36.1s-53.1-16.2-53-36.1H308.3z"/>
	<path class="st3" d="M308.3,334.3l-0.2-13.6c0-8.4,2.8-16.6,8.2-23.6l32.5-42.8c1.6-2.1,2.9-4.2,4-6.4
		c16.5-21.1,26.4-50.7,26.4-79.6c0-68.7-55.7-124.4-124.4-124.4S130.3,99.6,130.3,168.4c0,28.9,9.8,58.5,26.4,79.6
		c1.2,2.3,2.6,4.6,4.4,6.8l33,42.3c5.6,7.2,8.6,15.5,8.5,24.1l-0.2,13.2H308.3z"/>
	<rect x="202.3" y="363.7" class="st3" width="106" height="34.1"/>
</g>
<g id="Layer_5">
	<g>
		<g>
			<path class="st4" d="M250.1,79.6c5,0,9.7,0.5,15.3,1.7l0.1,0l0.1,0c10.7,2.1,20.7,7.7,28.1,15.7c6.4,7.6,10.6,16.8,11.9,26.8
				l0,0.2l0,0.2c1.5,10,1.1,20.1-1.1,30l-0.1,0.3l-0.1,0.3c-2.7,13.6-8.5,26.6-16.9,37.7l-0.2,0.3l-0.2,0.3
				c-6.7,9.5-16.2,16.5-27.5,20.2c-3.3,1-6.7,1.5-10.2,1.5c-5.4,0-10.7-1.2-15.5-3.6c-11.9-5.9-21.6-15.3-28-27.1l-0.2-0.3l-0.2-0.3
				c-7.5-12.8-11.8-27.3-12.6-41.9l0-0.4l0-0.4c-1.1-12.6,1.4-25.1,7.2-36.3c5.8-10.2,15.1-17.7,26.3-21.1l0.1,0l0.1,0
				c5.3-1.7,10.9-2.8,16.7-3.5l0.4,0h0.7l0.7,0C246.9,79.6,248.5,79.6,250.1,79.6L250.1,79.6 M250.1,55.6c-2.1,0-4.2,0.1-6.4,0.2
				l-1.6,0c-7.8,0.7-15.4,2.2-22.8,4.6c-17.1,5.2-31.5,16.9-40.3,32.5c-8.1,15.3-11.6,32.7-10.1,50c1,18.6,6.5,36.6,15.9,52.7
				c8.7,16,22.1,29,38.4,37.1c8.2,4.1,17.2,6.1,26.2,6.1c5.8,0,11.7-0.9,17.3-2.6c16.2-5.2,30.2-15.4,39.9-29.2
				c10.6-14,17.9-30.3,21.3-47.6c2.9-12.8,3.4-25.9,1.4-38.9c-1.9-14.7-8-28.4-17.7-39.7c-10.9-11.9-25.4-20.1-41.4-23.3
				C263.3,56.3,256.9,55.6,250.1,55.6L250.1,55.6z"/>
		</g>
	</g>
	<g>
		<g>
			<path class="st4" d="M194.8,283.3c1.5,0.1,6.2,2.9,9,4.5c0.8,0.5,1.6,1,2.5,1.4l0.8,0.5l0.8,0.4c12.7,6.1,26.9,9.3,41.1,9.3
				c5.5,0,11.1-0.5,16.5-1.4c13.4-2,26.3-6.9,37.6-14.5c0.6,0,1.2,0,1.9,0c9.6,0,19,1.4,28,4.1l0,0l0,0
				c25.4,7.5,43.5,20.4,55.4,39.2l0.3,0.4l0.3,0.4c8.1,11.7,8.9,26.9,8.8,44.4H99.7c-0.5-5.5,0-12.7,1.9-21
				c3.4-15,10.8-29.5,18.7-37l0.3-0.3l0.3-0.3c9.9-10,22.1-18,35.5-22.9l0.2-0.1l0.2-0.1c7.4-2.9,15.3-4.8,23.3-5.7
				c2.6-0.2,3.6-0.3,5-0.5c0.5-0.1,1.2-0.2,2.5-0.3l3.2-0.3l1.7-0.1l1.2-0.1L194.8,283.3C194.8,283.3,194.8,283.3,194.8,283.3
				 M194.8,259.3c-1.3,0-2.7,0.1-4,0.3l-2.1,0.1l-3.6,0.4c-4.2,0.4-3.1,0.4-7.3,0.7c-10.3,1.1-20.3,3.5-29.9,7.3
				c-16.7,6.2-31.8,15.9-44.3,28.6C80.2,319,66.1,372,82.8,396.1h333.8c4.2,0,5-0.6,5-5c0-26.3,2.9-54.2-12.8-77.1
				c-16.2-25.9-40.3-41-68.9-49.5c-11.3-3.4-23.1-5.1-34.9-5.1c-1.9,0-3.9,0-5.8,0.1c-2.8,0.2-5.5,1.1-7.8,2.8
				c-8.8,6.3-19,10.3-29.7,11.9c-4.2,0.8-8.5,1.1-12.7,1.1c-10.6,0-21.1-2.3-30.7-7C210.7,264.1,203.6,259.3,194.8,259.3
				L194.8,259.3z"/>
		</g>
	</g>
</g>
</svg>
