<?xml version="1.0" encoding="utf-8"?>
<!-- Generator: Adobe Illustrator 24.2.1, SVG Export Plug-In . SVG Version: 6.00 Build 0)  -->
<svg version="1.1" xmlns="http://www.w3.org/2000/svg" xmlns:xlink="http://www.w3.org/1999/xlink" x="0px" y="0px"
	 viewBox="0 0 15 15" style="enable-background:new 0 0 15 15;" xml:space="preserve">
<style type="text/css">
	.st0{display:none;fill:#D2EBF0;}
	.st1{fill:#D2EBF0;}
	.st2{fill:#C35A20;}
</style>
<g id="Layer_1">
	<circle class="st0" cx="7.5" cy="7.5" r="6.1"/>
	<g>
		<circle class="st1" cx="7.5" cy="7.5" r="6.1"/>
		<g>
			<path class="st2" d="M13.3,7.5c0,2.4-1.5,4.6-3.8,5.4C7.2,13.7,4.6,13,3,11.2C1.5,9.3,1.3,6.6,2.5,4.5c1.2-2.1,3.7-3.2,6-2.7
				C11.3,2.4,13.2,4.8,13.3,7.5c0,0.4,0.6,0.4,0.6,0c0-2.6-1.6-5-4.1-6c-2.5-1-5.5-0.2-7.2,1.9c-1.7,2.1-1.9,5-0.5,7.3
				c1.4,2.3,4,3.5,6.6,3c3-0.5,5.2-3.2,5.2-6.3C13.9,7.1,13.3,7.1,13.3,7.5z"/>
		</g>
	</g>
</g>
<g id="Layer_2">
	<g>
		<g>
			<path class="st2" d="M4.4,4.8c1.7,1.7,3.4,3.4,5.1,5.1c0.2,0.2,0.5,0.5,0.7,0.7c0.3,0.3,0.7-0.2,0.4-0.4C9,8.5,7.3,6.8,5.6,5.1
				C5.3,4.8,5.1,4.6,4.9,4.4C4.6,4.1,4.2,4.5,4.4,4.8L4.4,4.8z"/>
		</g>
	</g>
	<g>
		<g>
			<path class="st2" d="M10.3,4.4C8.6,6.1,6.9,7.8,5.2,9.5C4.9,9.7,4.7,10,4.4,10.2c-0.3,0.3,0.2,0.7,0.4,0.4
				C6.6,8.9,8.3,7.2,10,5.5c0.2-0.2,0.5-0.5,0.7-0.7C11,4.5,10.6,4.1,10.3,4.4L10.3,4.4z"/>
		</g>
	</g>
</g>
</svg>
