<?xml version="1.0" encoding="utf-8"?>
<!-- Generator: Adobe Illustrator 24.2.1, SVG Export Plug-In . SVG Version: 6.00 Build 0)  -->
<svg version="1.1" xmlns="http://www.w3.org/2000/svg" xmlns:xlink="http://www.w3.org/1999/xlink" x="0px" y="0px"
	 viewBox="0 0 500 500" style="enable-background:new 0 0 500 500;" xml:space="preserve">
<style type="text/css">
	.st0{fill:#D2EBF0;}
	.st1{fill:none;stroke:#C35A20;stroke-width:23.3378;stroke-linecap:round;stroke-linejoin:round;stroke-miterlimit:10;}
</style>
<g id="Layer_3">
	<circle class="st0" cx="251.1" cy="250.9" r="244.1"/>
</g>
<g id="Layer_6">
	<path class="st1" d="M398.9,372.8H103.3c-13.1,0-20.3-18.6-12-31l25.1-37.6c11.7-17.5,15.8-39,10.9-59.4
		c-2.2-9.4-3.4-19.2-3.4-29.3c0-59.3,40.5-109,95.3-123.2c-1.3-3.6-2-7.5-2-11.5c0-19,15.6-34.3,34.7-33.9
		c17.1,0.4,31.5,13.8,32.9,30.9c0.4,5.1-0.3,10.1-1.9,14.5c54.8,14.1,95.3,63.9,95.3,123.2c0,7-0.6,13.9-1.7,20.6
		c-4.6,28.3,2,57.3,17.9,81.2l16.4,24.6C419.2,354.2,412,372.8,398.9,372.8z"/>
	<path class="st1" d="M302.4,407.3c0,29.5-23.9,53.5-53.5,53.5s-53.5-23.9-53.5-53.5H302.4z"/>
</g>
</svg>
