<?xml version="1.0" encoding="utf-8"?>
<!-- Generator: Adobe Illustrator 24.2.1, SVG Export Plug-In . SVG Version: 6.00 Build 0)  -->
<svg version="1.1" xmlns="http://www.w3.org/2000/svg" xmlns:xlink="http://www.w3.org/1999/xlink" x="0px" y="0px"
	 viewBox="0 0 500 500" style="enable-background:new 0 0 500 500;" xml:space="preserve">
<style type="text/css">
	.st0{fill:#D2EBF0;}
	.st1{fill:#C35A1F;}
	.st2{fill:none;stroke:#C35A1F;stroke-width:24;stroke-linecap:round;stroke-miterlimit:10;}
</style>
<g id="bol">
	<g id="Layer_3_1_">
		<circle class="st0" cx="251.1" cy="250.9" r="244.1"/>
	</g>
</g>
<g id="Layer_2">
	<g>
		<g>
			<g>
				<path class="st1" d="M255.9,254.1c2.3,0,4.5,0.2,7.2,0.8c0,0,0.1,0,0.1,0c4.3,0.9,8.3,3.1,11.3,6.3c2.5,3,4.2,6.7,4.7,10.8
					c0,0.1,0,0.3,0.1,0.4c0.7,4.7,0.5,9.5-0.5,14.3c0,0.2-0.1,0.4-0.1,0.6c-1.3,6.6-4.1,13-8.3,18.4c-0.2,0.2-0.3,0.4-0.5,0.6
					c-2.8,3.9-6.6,6.8-11.3,8.3c-1,0.3-2.1,0.4-3.1,0.4c-1.7,0-3.4-0.4-4.9-1.1c-5.3-2.6-9.6-6.8-12.4-12c-0.1-0.2-0.2-0.4-0.4-0.7
					c-3.7-6.3-5.8-13.4-6.2-20.5c0-0.3,0-0.6-0.1-0.9c-0.5-5.5,0.6-11.1,3.1-16c2.2-3.8,5.7-6.6,9.9-7.9c0.1,0,0.2-0.1,0.3-0.1
					c2.4-0.8,4.9-1.3,7.5-1.6c0.4,0,0.8,0,1.2,0C254.4,254.2,255.2,254.1,255.9,254.1 M255.9,230.1c-1.2,0-2.5,0-3.8,0.1h-0.9
					c-4.6,0.4-9.2,1.3-13.6,2.7c-10.2,3.1-18.7,10-24,19.3c-4.8,9.1-6.9,19.4-6,29.7c0.6,11.1,3.8,21.8,9.4,31.3
					c5.2,9.5,13.2,17.2,22.8,22.1c4.9,2.4,10.2,3.6,15.5,3.6c3.5,0,6.9-0.5,10.3-1.5c9.6-3.1,17.9-9.1,23.7-17.4
					c6.3-8.3,10.6-18,12.6-28.3c1.7-7.6,2-15.4,0.9-23.1c-1.2-8.7-4.8-16.9-10.5-23.6c-6.5-7.1-15.1-12-24.6-13.8
					C263.7,230.6,259.9,230.1,255.9,230.1L255.9,230.1z"/>
			</g>
		</g>
		<g>
			<g>
				<path class="st1" d="M294.5,372.5L294.5,372.5L294.5,372.5 M224.6,375.1L224.6,375.1L224.6,375.1 M290.2,375.3
					c4.1,0.1,8.2,0.8,12.1,2c0,0,0.1,0,0.1,0c12.9,3.8,21.6,9.9,27.4,19.2c0.2,0.3,0.4,0.6,0.6,0.9c1.9,2.8,2.8,6.6,3.2,11.1H177
					c0.2-0.8,0.4-1.7,0.6-2.5c2-7.2,5.4-12.8,7.8-15.2c0.2-0.2,0.4-0.4,0.6-0.6c4.9-5,10.9-8.9,17.5-11.3c0.1,0,0.3-0.1,0.4-0.2
					c3.6-1.4,7.3-2.3,11.2-2.8c1.5-0.1,2.2-0.2,3.3-0.3c0.3,0,0.6-0.1,1.3-0.1l1.7-0.2l0.1,0c0.6,0.4,1.4,0.8,2,1.1
					c0.5,0.3,1,0.6,1.5,0.9c0.5,0.3,1.1,0.6,1.7,0.9c8.9,4.2,18.8,6.5,28.6,6.5c3.8,0,7.6-0.3,11.4-1
					C274.9,382.6,283,379.7,290.2,375.3 M223,351.2c-0.8,0-1.6,0.1-2.4,0.2l-1.2,0.1l-2.1,0.2c-2.5,0.3-1.8,0.3-4.3,0.4
					c-6.1,0.6-12.1,2.1-17.8,4.3c-9.9,3.7-18.9,9.5-26.3,17c-14,13.3-22.3,44.7-12.4,59.1h198.4c2.5,0,2.9-0.4,2.9-2.9
					c0-15.6,1.8-32.2-7.6-45.8c-9.6-15.4-24-24.4-40.9-29.4c-6.7-2-13.7-3-20.7-3c-1.1,0-2.3,0-3.4,0.1c-1.7,0.1-3.2,0.7-4.6,1.7
					c-5.3,3.7-11.3,6.1-17.7,7c-2.5,0.5-5,0.7-7.6,0.7c-6.3,0-12.5-1.4-18.3-4.1C232.5,354,228.2,351.2,223,351.2L223,351.2z"/>
			</g>
		</g>
	</g>
	<g>
		<path class="st2" d="M94.7,187.2c0-12.7,10.3-22.9,22.9-22.9s22.9,10.3,22.9,22.9c0,14.7-16.3,28.7-22.6,36.9
			c-1,1.4-1.6,3-1.6,4.7v11.6"/>
		<g>
			<path class="st1" d="M117.6,259.7c-5.9,0-10.7,4.8-10.7,10.7c0,5.9,4.8,10.7,10.7,10.7s10.7-4.8,10.7-10.7
				C128.3,264.5,123.5,259.7,117.6,259.7L117.6,259.7z"/>
		</g>
	</g>
	<g>
		<path class="st2" d="M232.6,108.6c0-12.7,10.3-22.9,22.9-22.9s22.9,10.3,22.9,22.9c0,14.7-16.3,28.7-22.6,36.9
			c-1,1.4-1.6,3-1.6,4.7v11.6"/>
		<g>
			<path class="st1" d="M255.6,181c-5.9,0-10.7,4.8-10.7,10.7s4.8,10.7,10.7,10.7s10.7-4.8,10.7-10.7S261.5,181,255.6,181L255.6,181
				z"/>
		</g>
	</g>
	<g>
		<path class="st2" d="M358.3,179.6c0-12.7,10.3-22.9,22.9-22.9c12.7,0,22.9,10.3,22.9,22.9c0,14.7-16.3,28.7-22.6,36.9
			c-1,1.4-1.6,3-1.6,4.7v11.6"/>
		<g>
			<path class="st1" d="M381.3,252c-5.9,0-10.7,4.8-10.7,10.7c0,5.9,4.8,10.7,10.7,10.7s10.7-4.8,10.7-10.7
				C391.9,256.8,387.2,252,381.3,252L381.3,252z"/>
		</g>
	</g>
</g>
</svg>
