<?xml version="1.0" encoding="utf-8"?>
<!-- Generator: Adobe Illustrator 24.2.1, SVG Export Plug-In . SVG Version: 6.00 Build 0)  -->
<svg version="1.1" xmlns="http://www.w3.org/2000/svg" xmlns:xlink="http://www.w3.org/1999/xlink" x="0px" y="0px"
	 viewBox="0 0 500 265.7" style="enable-background:new 0 0 500 265.7;" xml:space="preserve">
<style type="text/css">
	.st0{display:none;fill:#A4D5F4;}
	.st1{fill:#FFFFFF;}
	.st2{opacity:0.63;fill:#FFFFFF;}
</style>
<g id="Layer_6">
	<path class="st0" d="M257.6,72.8c0,0.7-0.1,1.3-0.4,1.8c-0.3,0.6-0.6,1.1-1.1,1.5s-0.9,0.8-1.5,1c-0.6,0.3-1.2,0.4-1.8,0.4
		c-0.7,0-1.3-0.1-1.8-0.4s-1.1-0.6-1.5-1c-0.4-0.4-0.8-0.9-1-1.5c-0.3-0.6-0.4-1.2-0.4-1.8s0.1-1.3,0.4-1.9c0.2-0.6,0.6-1.1,1-1.5
		c0.4-0.4,0.9-0.8,1.5-1c0.6-0.2,1.2-0.4,1.8-0.4c0.6,0,1.3,0.1,1.8,0.4c0.6,0.3,1.1,0.6,1.5,1c0.4,0.4,0.8,1,1.1,1.5
		C257.5,71.5,257.6,72.1,257.6,72.8z M256.1,84.7v38h-6.7v-38H256.1z"/>
</g>
<g id="Layer_4">
</g>
<g id="l">
</g>
<g id="Layer_7">
</g>
<g id="Layer_8">
	<path class="st1" d="M461.4,124.2v27.7h18.7V162h-18.7v40.2c0,0,0.3,5.3,4.4,6.6c4.1,1.2,7.5-0.7,7.5-0.7l3.8-2.4l4.7,7
		c0,0-7,5.9-14.3,5.9c-7.3,0-9.5-1-11.3-2.5c-1.8-1.5-6.2-4.5-6.2-15.1s0-22.4,0-22.4v-16.7h-10.3v-10.1l10.4-0.1v-27.6H461.4z"/>
	<path class="st1" d="M386,175.6v42.1h-11.5v-93.2H386v31.7c1.6-1.2,3.8-4.1,6.9-5.4c2.4-1,8.4-2,16-1c3.3,0.5,9.6,3.1,14.4,8.4
		c3.6,4,4.6,8.6,4.9,10.8v48.8h-11.6v-42.1c-2.2-13.9-13.4-13.7-13.4-13.7C388.9,161.3,386.4,170.9,386,175.6z"/>
	<path class="st1" d="M358.3,222.5L358.3,222.5l0-0.6C358.3,222.1,358.3,222.3,358.3,222.5z"/>
	<path class="st1" d="M344.3,150.6v2.7c-6.2-4.3-7.7-3.6-14.9-3.6c-5.4,0-10.1,3.1-14.1,6c-4,2.9-7,6.9-9.2,12.1
		c-2.1,5.2-3.1,10.9-3.1,17.1c0,9,2.3,16.7,6.9,23.1c4.6,6.4,11.1,9.6,19.5,9.6c6.7,0,11.4-1.1,15.9-6.7v10.2c0,0.3,0,0.8,0,1.3
		c0,2-0.1,5.4-1.1,8c-1.6,4.4-5.6,6.7-6.5,7.2c-1,0.6-4.8,2.7-9.7,2c-6.3-0.9-9.7-5.5-10.4-6.5c-1.6-2.3-2.3-4.6-2.5-6h-11.4
		c0,0.2,0.1,0.5,0.1,0.9c1.1,6.7,5.3,11.2,6.6,12.7c7.1,7.5,16.5,8.2,18.5,8.3c5.8,0.3,10.4-1,11.6-1.5c7.5-3,11.3-8.7,12.5-10.5
		c3-4.4,3.8-11.3,3.9-14.5c0-0.2,0-0.4,0-0.6v-71.3H344.3z M342.2,202.7c-3.2,3.9-7.2,5.8-11.9,5.8c-4.8,0-8.8-1.9-11.9-5.8
		c-3.2-3.9-4.8-10.1-4.8-18.6c0-7.8,1.6-13.7,4.8-17.7c3.2-4,7.1-5.9,11.7-5.9c4.7,0,8.6,2,12,6c3.3,4,5,10,5,17.9
		C347,192.8,345.4,198.8,342.2,202.7z"/>
	<rect x="238.1" y="124.4" class="st1" width="11.5" height="93.2"/>
	<path class="st1" d="M314.9,114.7c0,5-4.1,9.1-9.1,9.1c-5,0-9.1-4.1-9.1-9.1c0-5,4.1-9.1,9.1-9.1
		C310.9,105.7,314.9,109.7,314.9,114.7z"/>
	<path class="st1" d="M303,136.1c-3.3,0-6.3-1.1-8.6-3.1L269,217.6l11.7,0.1l24.8-81.8C304.7,136,303.8,136.1,303,136.1z"/>
	
		<rect x="204" y="35.9" transform="matrix(0.6875 -0.7262 0.7262 0.6875 34.6167 182.1672)" class="st1" width="49.9" height="29.9"/>
	<path class="st1" d="M298.1,97l-57.4-54.3l-7.9,8.3l57.4,54.3C291.5,101.5,294.4,98.5,298.1,97z"/>
	<polyline class="st2" points="182.7,245.7 222.9,152.3 211,152.3 191.5,201.6 171.8,152.3 158.9,152.3 185.8,213.8 171.2,245.7 
		182.7,245.7 	"/>
	<polyline class="st2" points="149.8,216.7 138.1,216.9 138.1,174.8 107.6,174.8 107.6,216.9 96.1,216.9 96.1,127.8 107.6,127.8 
		107.8,165.5 138.7,165.5 138.7,127.8 149.8,127.8 149.8,216.7 	"/>
	<path class="st1" d="M147.2,54.6c19.9-21,53.7-21.4,75.5-0.8s23.2,54.4,3.3,75.4L147.2,54.6z"/>
	<path class="st2" d="M222.9,152.3L222.9,152.3l-40.2,93.4h-11.5l14.6-31.9l-26.9-61.5h12.9l19.7,49.2l19.5-49.2H222.9 M107.8,165.5
		h30.9v-37.7h11.1v88.9l-11.6,0.2v-42.1h-30.6v42.1H96.1v-89.1h11.5L107.8,165.5 M143.8,59.9L11.9,246.8h212.7V135.5L143.8,59.9"/>
	<polyline class="st2" points="222.9,152.3 211,152.3 191.5,201.6 171.8,152.3 158.9,152.3 185.8,213.8 171.2,245.7 182.7,245.7 
		222.9,152.3 	"/>
	<polyline class="st2" points="149.8,127.8 138.7,127.8 138.7,165.5 107.8,165.5 107.6,127.8 96.1,127.8 96.1,216.9 107.6,216.9 
		107.6,174.8 138.1,174.8 138.1,216.9 149.8,216.7 149.8,127.8 	"/>
</g>
</svg>
